<svg width="307" height="138" viewBox="0 0 307 138" fill="none" xmlns="http://www.w3.org/2000/svg">
<path d="M0.730469 64V3.63198H13.8425V52.824H44.2905V64H0.730469Z" fill="white"/>
<path d="M56.9467 10.936C54.0306 10.936 51.6667 8.57204 51.6667 5.65598V5.65598C51.6667 2.73991 54.0306 0.375977 56.9467 0.375977H58.6187C61.5347 0.375977 63.8987 2.73991 63.8987 5.65598V5.65598C63.8987 8.57204 61.5347 10.936 58.6187 10.936H56.9467ZM51.6667 64V17.712H63.8987V64H51.6667Z" fill="white"/>
<path d="M93.8716 65.056C90.6449 65.056 87.7409 64.704 85.1596 64C82.5783 63.296 80.3783 62.328 78.5596 61.096C76.7409 59.8053 75.3329 58.28 74.3356 56.52C73.3969 54.76 72.9276 52.7653 72.9276 50.536C72.9276 50.3013 72.9276 50.0666 72.9276 49.832C72.9276 49.5973 72.9569 49.4213 73.0156 49.304H84.8076C84.8076 49.4213 84.8076 49.5386 84.8076 49.656C84.8076 49.7733 84.8076 49.8906 84.8076 50.008C84.8663 51.4746 85.3356 52.6773 86.2156 53.616C87.0956 54.496 88.2396 55.1413 89.6476 55.552C91.1143 55.9626 92.6396 56.168 94.2236 56.168C95.6316 56.168 96.9809 56.0506 98.2716 55.816C99.6209 55.5226 100.736 55.024 101.616 54.32C102.554 53.616 103.024 52.7066 103.024 51.592C103.024 50.184 102.437 49.0986 101.264 48.336C100.149 47.5733 98.6529 46.9573 96.7756 46.488C94.9569 46.0186 92.9623 45.4906 90.7916 44.904C88.7969 44.4346 86.8023 43.9066 84.8076 43.32C82.8129 42.6746 80.9943 41.8533 79.3516 40.856C77.7676 39.8586 76.4769 38.568 75.4796 36.984C74.4823 35.3413 73.9836 33.288 73.9836 30.824C73.9836 28.4186 74.5116 26.336 75.5676 24.576C76.6236 22.7573 78.0609 21.2613 79.8796 20.088C81.7569 18.9146 83.9276 18.064 86.3916 17.536C88.9143 16.9493 91.6129 16.656 94.4876 16.656C97.1863 16.656 99.7089 16.9493 102.056 17.536C104.402 18.064 106.456 18.8853 108.216 20C109.976 21.056 111.354 22.4053 112.352 24.048C113.349 25.632 113.848 27.4213 113.848 29.416C113.848 29.8266 113.848 30.208 113.848 30.56C113.848 30.912 113.818 31.1466 113.76 31.264H102.056V30.56C102.056 29.504 101.733 28.624 101.088 27.92C100.442 27.1573 99.5036 26.5706 98.2716 26.16C97.0983 25.7493 95.6609 25.544 93.9596 25.544C92.7863 25.544 91.7009 25.632 90.7036 25.808C89.7649 25.984 88.9436 26.248 88.2396 26.6C87.5356 26.952 86.9783 27.392 86.5676 27.92C86.2156 28.3893 86.0396 28.976 86.0396 29.68C86.0396 30.6773 86.4503 31.4986 87.2716 32.144C88.1516 32.7306 89.2956 33.2293 90.7036 33.64C92.1116 34.0506 93.6663 34.4906 95.3676 34.96C97.4796 35.5466 99.6796 36.1333 101.968 36.72C104.314 37.248 106.485 37.9813 108.48 38.92C110.474 39.8586 112.088 41.208 113.32 42.968C114.552 44.6693 115.168 46.9866 115.168 49.92C115.168 52.736 114.61 55.112 113.496 57.048C112.44 58.984 110.944 60.5386 109.008 61.712C107.072 62.8853 104.813 63.736 102.232 64.264C99.6503 64.792 96.8636 65.056 93.8716 65.056Z" fill="white"/>
<path d="M137.842 65.056C134.909 65.056 132.533 64.528 130.714 63.472C128.895 62.416 127.575 61.008 126.754 59.248C125.933 57.4293 125.522 55.4346 125.522 53.264V27.128H119.802V17.712H125.962L128.25 4.51198H137.754V17.712H146.202V27.128H137.754V51.24C137.754 52.648 138.077 53.7333 138.722 54.496C139.367 55.2 140.423 55.552 141.89 55.552H146.202V63.648C145.498 63.8826 144.677 64.088 143.738 64.264C142.799 64.4986 141.802 64.6747 140.746 64.792C139.69 64.968 138.722 65.056 137.842 65.056Z" fill="white"/>
<path d="M159.384 10.936C156.468 10.936 154.104 8.57204 154.104 5.65598V5.65598C154.104 2.73991 156.468 0.375977 159.384 0.375977H161.056C163.972 0.375977 166.336 2.73991 166.336 5.65598V5.65598C166.336 8.57204 163.972 10.936 161.056 10.936H159.384ZM154.104 64V17.712H166.336V64H154.104Z" fill="white"/>
<path d="M177.565 64V17.712H187.685L188.653 24.048H189.269C190.325 22.5226 191.586 21.2026 193.053 20.088C194.578 18.9733 196.28 18.1226 198.157 17.536C200.034 16.9493 202.088 16.656 204.317 16.656C207.368 16.656 210.037 17.2133 212.325 18.328C214.613 19.4426 216.373 21.2026 217.605 23.608C218.896 26.0133 219.541 29.152 219.541 33.024V64H207.309V34.96C207.309 33.4933 207.133 32.2613 206.781 31.264C206.429 30.208 205.901 29.3573 205.197 28.712C204.552 28.008 203.73 27.5093 202.733 27.216C201.736 26.9226 200.621 26.776 199.389 26.776C197.57 26.776 195.928 27.216 194.461 28.096C192.994 28.976 191.85 30.1786 191.029 31.704C190.208 33.2293 189.797 34.9893 189.797 36.984V64H177.565Z" fill="white"/>
<path d="M238.071 80.544C236.017 80.544 234.081 80.104 232.263 79.224C230.444 78.4027 228.977 77.1707 227.863 75.528C226.748 73.8853 226.191 71.92 226.191 69.632C226.191 67.0506 226.924 64.9973 228.391 63.472C229.916 61.888 231.617 60.7146 233.495 59.952C232.145 59.1893 231.031 58.192 230.151 56.96C229.329 55.728 228.919 54.2906 228.919 52.648C228.919 50.36 229.74 48.512 231.383 47.104C233.084 45.6373 235.02 44.6986 237.191 44.288C235.02 42.9386 233.319 41.2373 232.087 39.184C230.913 37.072 230.327 34.7253 230.327 32.144C230.327 28.8 231.148 25.984 232.791 23.696C234.492 21.408 236.897 19.6773 240.007 18.504C243.175 17.272 246.9 16.656 251.183 16.656C252.884 16.656 254.468 16.744 255.935 16.92C257.46 17.096 258.839 17.3893 260.071 17.8C262.241 16.5093 263.708 15.1013 264.471 13.576C265.292 11.992 265.732 10.7306 265.791 9.79198H277.143C277.143 11.9626 276.732 13.84 275.911 15.424C275.148 17.008 274.033 18.328 272.567 19.384C271.1 20.3813 269.34 21.1146 267.287 21.584C268.812 22.8746 269.985 24.4293 270.807 26.248C271.628 28.0666 272.039 30.032 272.039 32.144C272.039 35.4293 271.247 38.2453 269.663 40.592C268.079 42.88 265.82 44.64 262.887 45.872C260.012 47.104 256.551 47.72 252.503 47.72H245.463C244.055 47.72 242.999 47.984 242.295 48.512C241.591 48.9813 241.239 49.6853 241.239 50.624C241.239 51.3866 241.532 52.0613 242.119 52.648C242.764 53.176 243.791 53.44 245.199 53.44H264.471C268.343 53.44 271.423 54.6426 273.711 57.048C276.057 59.3946 277.231 62.416 277.231 66.112C277.231 68.928 276.497 71.4213 275.031 73.592C273.564 75.7626 271.54 77.464 268.959 78.696C266.377 79.928 263.415 80.544 260.071 80.544H238.071ZM243.175 72.36H259.455C260.511 72.36 261.449 72.1546 262.271 71.744C263.092 71.392 263.737 70.864 264.207 70.16C264.676 69.5146 264.911 68.752 264.911 67.872C264.911 66.3466 264.441 65.2026 263.503 64.44C262.564 63.6773 261.391 63.296 259.983 63.296H243.175C241.767 63.296 240.593 63.7067 239.655 64.528C238.775 65.3493 238.335 66.4346 238.335 67.784C238.335 69.1333 238.775 70.2186 239.655 71.04C240.593 71.92 241.767 72.36 243.175 72.36ZM251.183 39.8C254.057 39.8 256.228 39.1546 257.695 37.864C259.22 36.5146 259.983 34.608 259.983 32.144C259.983 29.68 259.22 27.8026 257.695 26.512C256.228 25.1626 254.057 24.488 251.183 24.488C248.367 24.488 246.196 25.1626 244.671 26.512C243.204 27.8026 242.471 29.68 242.471 32.144C242.471 33.728 242.793 35.1066 243.439 36.28C244.084 37.4533 245.052 38.3333 246.343 38.92C247.633 39.5066 249.247 39.8 251.183 39.8Z" fill="white"/>
<path d="M0.730469 136.944V76.576H75.2265C78.3945 76.576 81.2398 77.192 83.7625 78.424C86.3438 79.656 88.3678 81.3867 89.8345 83.616C91.3011 85.8453 92.0345 88.456 92.0345 91.448C92.0345 93.8533 91.5945 95.9947 90.7145 97.872C89.8345 99.7493 88.6318 101.304 87.1065 102.536C85.6398 103.768 83.9678 104.677 82.0905 105.264V105.616C84.3198 106.085 86.2851 106.965 87.9865 108.256C89.7465 109.547 91.1251 111.219 92.1225 113.272C93.1785 115.267 93.7065 117.643 93.7065 120.4C93.7065 124.037 92.8558 127.088 91.1545 129.552C89.5118 132.016 87.3118 133.864 84.5545 135.096C81.7971 136.328 78.7172 136.944 75.3145 136.944H0.730469ZM13.8425 126.208H72.7625C74.9331 126.208 76.6931 125.592 78.0425 124.36C79.4505 123.128 80.1545 121.221 80.1545 118.64C80.1545 117.115 79.8611 115.795 79.2745 114.68C78.6878 113.565 77.8078 112.715 76.6345 112.128C75.4611 111.483 73.9652 111.16 72.1465 111.16H13.8425V126.208ZM13.8425 100.952H71.2665C72.8505 100.952 74.1705 100.659 75.2265 100.072C76.3411 99.4267 77.1625 98.6053 77.6905 97.608C78.2771 96.552 78.5705 95.3493 78.5705 94C78.5705 91.712 77.9251 89.9813 76.6345 88.808C75.4025 87.6347 73.7598 87.048 71.7065 87.048H13.8425V100.952Z" fill="white"/>
<path d="M124.478 138C119.433 138 115.15 137.149 111.63 135.448C108.11 133.688 105.441 131.019 103.622 127.44C101.804 123.803 100.894 119.256 100.894 113.8C100.894 108.227 101.804 103.68 103.622 100.16C105.441 96.5813 108.11 93.9413 111.63 92.24C115.15 90.48 119.433 89.6 124.478 89.6C129.641 89.6 133.953 90.48 137.414 92.24C140.934 93.9413 143.604 96.5813 145.422 100.16C147.241 103.68 148.15 108.227 148.15 113.8C148.15 119.256 147.241 123.803 145.422 127.44C143.604 131.019 140.934 133.688 137.414 135.448C133.953 137.149 129.641 138 124.478 138ZM124.478 128.496C127.177 128.496 129.318 127.997 130.902 127C132.545 126.003 133.748 124.477 134.51 122.424C135.273 120.371 135.654 117.848 135.654 114.856V112.744C135.654 109.752 135.273 107.229 134.51 105.176C133.748 103.123 132.545 101.597 130.902 100.6C129.318 99.544 127.177 99.016 124.478 99.016C121.838 99.016 119.697 99.544 118.054 100.6C116.47 101.597 115.297 103.123 114.534 105.176C113.772 107.229 113.39 109.752 113.39 112.744V114.856C113.39 117.848 113.772 120.371 114.534 122.424C115.297 124.477 116.47 126.003 118.054 127C119.697 127.997 121.838 128.496 124.478 128.496Z" fill="white"/>
<path d="M170.967 138C168.034 138 165.658 137.472 163.839 136.416C162.02 135.36 160.7 133.952 159.879 132.192C159.058 130.373 158.647 128.379 158.647 126.208V100.072H152.927V90.656H159.087L161.375 77.456H170.879V90.656H179.327V100.072H170.879V124.184C170.879 125.592 171.202 126.677 171.847 127.44C172.492 128.144 173.548 128.496 175.015 128.496H179.327V136.592C178.623 136.827 177.802 137.032 176.863 137.208C175.924 137.443 174.927 137.619 173.871 137.736C172.815 137.912 171.847 138 170.967 138Z" fill="white"/>
<path d="M201.045 138C198.112 138 195.736 137.472 193.917 136.416C192.098 135.36 190.778 133.952 189.957 132.192C189.136 130.373 188.725 128.379 188.725 126.208V100.072H183.005V90.656H189.165L191.453 77.456H200.957V90.656H209.405V100.072H200.957V124.184C200.957 125.592 201.28 126.677 201.925 127.44C202.571 128.144 203.627 128.496 205.093 128.496H209.405V136.592C208.701 136.827 207.88 137.032 206.941 137.208C206.002 137.443 205.005 137.619 203.949 137.736C202.893 137.912 201.925 138 201.045 138Z" fill="white"/>
<path d="M230.811 99.8615L220 111.715L249.769 138H257.491L307 74.6077L301.852 71L254 118.5L230.811 99.8615Z" fill="#8FFE4B"/>
</svg>
